<svg width="77" height="42" viewBox="0 0 77 42" fill="none" xmlns="http://www.w3.org/2000/svg">
<path d="M0 16.5407H29.0889L32.5048 9.13953C32.5073 9.1342 32.5149 9.13424 32.5173 9.13959L37.6444 20.5333L42.2004 5.15682C42.2024 5.15018 42.2119 5.15033 42.2136 5.15703L48.4815 29.0889L52.7256 16.5407H77" stroke="url(#paint0_linear_40_777)" stroke-width="6.84445"/>
<path d="M29.0889 16.5407L31.4757 8.58462C31.7958 7.51773 33.2983 7.49497 33.6505 8.55168L37.6444 20.5333L41.025 5.32068C41.2931 4.11449 43.0198 4.13583 43.2579 5.34827L48.4815 31.9407" stroke="white" stroke-width="2.28148"/>
<rect x="46.7704" y="31.5536" width="3.09585" height="1.89486" transform="rotate(-17.0607 46.7704 31.5536)" fill="#1D9BF0"/>
<defs>
<linearGradient id="paint0_linear_40_777" x1="38.5" y1="5.1333" x2="38.5" y2="29.0889" gradientUnits="userSpaceOnUse">
<stop stop-color="#1D9BF0"/>
<stop offset="1" stop-color="#187EC4"/>
</linearGradient>
</defs>
</svg>
